# xmcd
#
# Track frame offsets: 
#        150
#        30362
#        52717
#        69965
#        85795
#        97425
#        123472
#        144800
#        164325
#        183555
#        199637
#        215862
#        228320
#        237845
#        270187
#
# Disc length: 3751 seconds
#
# Revision: 5
# Processed by: cddbd v1.5.2PL0 Copyright (c) Steve Scherf et al.
# Submitted via: ExactAudioCopy v0.99pb4
#
DISCID=c50ea50f
DTITLE=Various Artist - Blues Avenue [CD 2)
DYEAR=1996
DGENRE=Blues
TTITLE0=Gary Moore - Story Of The Blues
TTITLE1=B.B. King - The Thrill Is Gone
TTITLE2=Howlin' Wolf - The Red Rooster
TTITLE3=Muddy Waters - I Can't Be Satisfied
TTITLE4=Sonny Boy Williamson - Don't Start Me To Talking
TTITLE5=Chuck Berry - Mean Old World
TTITLE6=John Hiatt - Alone In The Dark
TTITLE7=Robert Cray - Right Next Door
TTITLE8=Free - Be My Friend
TTITLE9=Johnny Winter - Silver Train
TTITLE10=John Mayall and The Bluesbreakers - Ready To Ride
TTITLE11=Bo Diddley - Pretty Thing
TTITLE12=Slim Harpo - Te-Ni-Nee-Ni-Nu
TTITLE13=Buddy Guy - Stone Crazy
TTITLE14=Screamin' Jay Hawkins - I Putt A Spell On You
EXTD=
EXTT0=
EXTT1=
EXTT2=
EXTT3=
EXTT4=
EXTT5=
EXTT6=
EXTT7=
EXTT8=
EXTT9=
EXTT10=
EXTT11=
EXTT12=
EXTT13=
EXTT14=
PLAYORDER=
